<mxfile host="Electron" modified="2024-06-11T12:23:43.204Z" agent="Mozilla/5.0 (Windows NT 10.0; Win64; x64) AppleWebKit/537.36 (KHTML, like Gecko) draw.io/24.5.1 Chrome/124.0.6367.207 Electron/30.0.6 Safari/537.36" etag="QJMvNHtKLdlzeWh1-SOW" version="24.5.1" type="device">
  <diagram name="Page-1" id="0IUUCG0-n-lLBaCbUAzx">
    <mxGraphModel dx="1886" dy="614" grid="1" gridSize="10" guides="1" tooltips="1" connect="1" arrows="1" fold="1" page="1" pageScale="1" pageWidth="850" pageHeight="1100" math="0" shadow="0">
      <root>
        <mxCell id="0" />
        <mxCell id="1" parent="0" />
        <mxCell id="2F0MaldpZm5yaDsRfOMZ-1" value="Management&lt;div&gt;&lt;br&gt;&lt;/div&gt;" style="shape=umlActor;verticalLabelPosition=bottom;verticalAlign=top;html=1;outlineConnect=0;" vertex="1" parent="1">
          <mxGeometry x="-10" y="200" width="30" height="60" as="geometry" />
        </mxCell>
        <mxCell id="2F0MaldpZm5yaDsRfOMZ-7" value="&lt;div&gt;Single_User&lt;/div&gt;" style="shape=umlActor;verticalLabelPosition=bottom;verticalAlign=top;html=1;outlineConnect=0;" vertex="1" parent="1">
          <mxGeometry x="740" y="100" width="30" height="60" as="geometry" />
        </mxCell>
        <mxCell id="2F0MaldpZm5yaDsRfOMZ-10" value="&lt;div&gt;Organization&lt;/div&gt;" style="shape=umlActor;verticalLabelPosition=bottom;verticalAlign=top;html=1;outlineConnect=0;" vertex="1" parent="1">
          <mxGeometry x="750" y="310" width="30" height="60" as="geometry" />
        </mxCell>
        <mxCell id="2F0MaldpZm5yaDsRfOMZ-14" value="" style="rounded=0;whiteSpace=wrap;html=1;" vertex="1" parent="1">
          <mxGeometry x="220" y="60" width="380" height="550" as="geometry" />
        </mxCell>
        <mxCell id="2F0MaldpZm5yaDsRfOMZ-15" value="REGISTERS" style="ellipse;whiteSpace=wrap;html=1;" vertex="1" parent="1">
          <mxGeometry x="340" y="70" width="160" height="20" as="geometry" />
        </mxCell>
        <mxCell id="2F0MaldpZm5yaDsRfOMZ-16" value="" style="endArrow=classic;html=1;rounded=0;exitX=0.5;exitY=0.5;exitDx=0;exitDy=0;exitPerimeter=0;entryX=0.998;entryY=0.753;entryDx=0;entryDy=0;entryPerimeter=0;" edge="1" parent="1" source="2F0MaldpZm5yaDsRfOMZ-7" target="2F0MaldpZm5yaDsRfOMZ-15">
          <mxGeometry width="50" height="50" relative="1" as="geometry">
            <mxPoint x="400" y="340" as="sourcePoint" />
            <mxPoint x="500" y="91" as="targetPoint" />
          </mxGeometry>
        </mxCell>
        <mxCell id="2F0MaldpZm5yaDsRfOMZ-17" value="" style="endArrow=classic;html=1;rounded=0;entryX=1;entryY=0.5;entryDx=0;entryDy=0;exitX=0.5;exitY=0.5;exitDx=0;exitDy=0;exitPerimeter=0;" edge="1" parent="1" target="2F0MaldpZm5yaDsRfOMZ-15">
          <mxGeometry width="50" height="50" relative="1" as="geometry">
            <mxPoint x="770" y="338.31" as="sourcePoint" />
            <mxPoint x="496.18000000000006" y="90" as="targetPoint" />
          </mxGeometry>
        </mxCell>
        <mxCell id="2F0MaldpZm5yaDsRfOMZ-18" value="LOGIN" style="ellipse;whiteSpace=wrap;html=1;" vertex="1" parent="1">
          <mxGeometry x="380" y="110" width="80" height="20" as="geometry" />
        </mxCell>
        <mxCell id="2F0MaldpZm5yaDsRfOMZ-19" value="" style="endArrow=none;dashed=1;html=1;dashPattern=1 3;strokeWidth=2;rounded=0;exitX=0.5;exitY=0;exitDx=0;exitDy=0;entryX=0.5;entryY=1;entryDx=0;entryDy=0;" edge="1" parent="1" source="2F0MaldpZm5yaDsRfOMZ-18" target="2F0MaldpZm5yaDsRfOMZ-15">
          <mxGeometry width="50" height="50" relative="1" as="geometry">
            <mxPoint x="400" y="340" as="sourcePoint" />
            <mxPoint x="410" y="120" as="targetPoint" />
          </mxGeometry>
        </mxCell>
        <mxCell id="2F0MaldpZm5yaDsRfOMZ-20" value="REQUESTS_BUYS_TOKENS" style="ellipse;whiteSpace=wrap;html=1;" vertex="1" parent="1">
          <mxGeometry x="335" y="240" width="175" height="30" as="geometry" />
        </mxCell>
        <mxCell id="2F0MaldpZm5yaDsRfOMZ-22" value="" style="endArrow=classic;html=1;rounded=0;entryX=1;entryY=0.5;entryDx=0;entryDy=0;exitX=0.5;exitY=0.5;exitDx=0;exitDy=0;exitPerimeter=0;" edge="1" parent="1" source="2F0MaldpZm5yaDsRfOMZ-7" target="2F0MaldpZm5yaDsRfOMZ-20">
          <mxGeometry width="50" height="50" relative="1" as="geometry">
            <mxPoint x="400" y="340" as="sourcePoint" />
            <mxPoint x="450" y="290" as="targetPoint" />
          </mxGeometry>
        </mxCell>
        <mxCell id="2F0MaldpZm5yaDsRfOMZ-23" value="" style="endArrow=classic;html=1;rounded=0;exitX=0.5;exitY=0.5;exitDx=0;exitDy=0;exitPerimeter=0;entryX=1;entryY=0.5;entryDx=0;entryDy=0;" edge="1" parent="1" source="2F0MaldpZm5yaDsRfOMZ-10" target="2F0MaldpZm5yaDsRfOMZ-20">
          <mxGeometry width="50" height="50" relative="1" as="geometry">
            <mxPoint x="400" y="340" as="sourcePoint" />
            <mxPoint x="450" y="290" as="targetPoint" />
          </mxGeometry>
        </mxCell>
        <mxCell id="2F0MaldpZm5yaDsRfOMZ-25" value="" style="endArrow=classic;html=1;rounded=0;exitX=0.5;exitY=0.5;exitDx=0;exitDy=0;exitPerimeter=0;entryX=0;entryY=0.5;entryDx=0;entryDy=0;" edge="1" parent="1" source="2F0MaldpZm5yaDsRfOMZ-1" target="2F0MaldpZm5yaDsRfOMZ-18">
          <mxGeometry width="50" height="50" relative="1" as="geometry">
            <mxPoint x="400" y="340" as="sourcePoint" />
            <mxPoint x="450" y="290" as="targetPoint" />
          </mxGeometry>
        </mxCell>
        <mxCell id="2F0MaldpZm5yaDsRfOMZ-26" value="MANAGES_PROFILE" style="ellipse;whiteSpace=wrap;html=1;" vertex="1" parent="1">
          <mxGeometry x="340" y="190" width="170" height="30" as="geometry" />
        </mxCell>
        <mxCell id="2F0MaldpZm5yaDsRfOMZ-27" value="" style="endArrow=classic;html=1;rounded=0;exitX=0.5;exitY=0.5;exitDx=0;exitDy=0;exitPerimeter=0;entryX=0;entryY=0.5;entryDx=0;entryDy=0;" edge="1" parent="1" source="2F0MaldpZm5yaDsRfOMZ-1" target="2F0MaldpZm5yaDsRfOMZ-26">
          <mxGeometry width="50" height="50" relative="1" as="geometry">
            <mxPoint x="400" y="340" as="sourcePoint" />
            <mxPoint x="450" y="290" as="targetPoint" />
          </mxGeometry>
        </mxCell>
        <mxCell id="2F0MaldpZm5yaDsRfOMZ-28" value="" style="endArrow=classic;html=1;rounded=0;entryX=1;entryY=0.5;entryDx=0;entryDy=0;exitX=0.5;exitY=0.5;exitDx=0;exitDy=0;exitPerimeter=0;" edge="1" parent="1" source="2F0MaldpZm5yaDsRfOMZ-7" target="2F0MaldpZm5yaDsRfOMZ-26">
          <mxGeometry width="50" height="50" relative="1" as="geometry">
            <mxPoint x="400" y="340" as="sourcePoint" />
            <mxPoint x="450" y="290" as="targetPoint" />
          </mxGeometry>
        </mxCell>
        <mxCell id="2F0MaldpZm5yaDsRfOMZ-29" value="" style="endArrow=classic;html=1;rounded=0;entryX=1;entryY=0.5;entryDx=0;entryDy=0;exitX=0.5;exitY=0.5;exitDx=0;exitDy=0;exitPerimeter=0;" edge="1" parent="1" source="2F0MaldpZm5yaDsRfOMZ-10" target="2F0MaldpZm5yaDsRfOMZ-26">
          <mxGeometry width="50" height="50" relative="1" as="geometry">
            <mxPoint x="400" y="340" as="sourcePoint" />
            <mxPoint x="450" y="290" as="targetPoint" />
          </mxGeometry>
        </mxCell>
        <mxCell id="2F0MaldpZm5yaDsRfOMZ-30" value="Assistance" style="shape=umlActor;verticalLabelPosition=bottom;verticalAlign=top;html=1;outlineConnect=0;" vertex="1" parent="1">
          <mxGeometry x="50" y="485" width="30" height="60" as="geometry" />
        </mxCell>
        <mxCell id="2F0MaldpZm5yaDsRfOMZ-31" value="REGISTERS_ASSISTANCE" style="ellipse;whiteSpace=wrap;html=1;" vertex="1" parent="1">
          <mxGeometry x="340" y="400" width="180" height="30" as="geometry" />
        </mxCell>
        <mxCell id="2F0MaldpZm5yaDsRfOMZ-33" value="LOGIN" style="ellipse;whiteSpace=wrap;html=1;" vertex="1" parent="1">
          <mxGeometry x="395" y="465" width="70" height="20" as="geometry" />
        </mxCell>
        <mxCell id="2F0MaldpZm5yaDsRfOMZ-34" value="" style="endArrow=none;dashed=1;html=1;dashPattern=1 3;strokeWidth=2;rounded=0;exitX=0.5;exitY=1;exitDx=0;exitDy=0;" edge="1" parent="1" source="2F0MaldpZm5yaDsRfOMZ-31" target="2F0MaldpZm5yaDsRfOMZ-33">
          <mxGeometry width="50" height="50" relative="1" as="geometry">
            <mxPoint x="400" y="340" as="sourcePoint" />
            <mxPoint x="450" y="290" as="targetPoint" />
          </mxGeometry>
        </mxCell>
        <mxCell id="2F0MaldpZm5yaDsRfOMZ-35" value="" style="endArrow=classic;html=1;rounded=0;exitX=0.5;exitY=0.5;exitDx=0;exitDy=0;exitPerimeter=0;entryX=0;entryY=0.5;entryDx=0;entryDy=0;" edge="1" parent="1" source="2F0MaldpZm5yaDsRfOMZ-30" target="2F0MaldpZm5yaDsRfOMZ-33">
          <mxGeometry width="50" height="50" relative="1" as="geometry">
            <mxPoint x="400" y="340" as="sourcePoint" />
            <mxPoint x="450" y="290" as="targetPoint" />
          </mxGeometry>
        </mxCell>
        <mxCell id="2F0MaldpZm5yaDsRfOMZ-36" value="MANAGES_USERS" style="ellipse;whiteSpace=wrap;html=1;" vertex="1" parent="1">
          <mxGeometry x="345" y="150" width="155" height="30" as="geometry" />
        </mxCell>
        <mxCell id="2F0MaldpZm5yaDsRfOMZ-37" value="" style="endArrow=classic;html=1;rounded=0;exitX=0.5;exitY=0.5;exitDx=0;exitDy=0;exitPerimeter=0;entryX=0;entryY=0.5;entryDx=0;entryDy=0;" edge="1" parent="1" source="2F0MaldpZm5yaDsRfOMZ-1" target="2F0MaldpZm5yaDsRfOMZ-36">
          <mxGeometry width="50" height="50" relative="1" as="geometry">
            <mxPoint x="400" y="340" as="sourcePoint" />
            <mxPoint x="450" y="290" as="targetPoint" />
          </mxGeometry>
        </mxCell>
        <mxCell id="2F0MaldpZm5yaDsRfOMZ-38" value="ATTENDS_CUSTOMERS" style="ellipse;whiteSpace=wrap;html=1;" vertex="1" parent="1">
          <mxGeometry x="355" y="560" width="155" height="25" as="geometry" />
        </mxCell>
        <mxCell id="2F0MaldpZm5yaDsRfOMZ-39" value="" style="endArrow=classic;html=1;rounded=0;entryX=0.961;entryY=0.351;entryDx=0;entryDy=0;entryPerimeter=0;exitX=0.5;exitY=0.5;exitDx=0;exitDy=0;exitPerimeter=0;" edge="1" parent="1" source="2F0MaldpZm5yaDsRfOMZ-10" target="2F0MaldpZm5yaDsRfOMZ-38">
          <mxGeometry width="50" height="50" relative="1" as="geometry">
            <mxPoint x="400" y="440" as="sourcePoint" />
            <mxPoint x="450" y="390" as="targetPoint" />
          </mxGeometry>
        </mxCell>
        <mxCell id="2F0MaldpZm5yaDsRfOMZ-40" value="" style="endArrow=classic;html=1;rounded=0;entryX=0.951;entryY=0.298;entryDx=0;entryDy=0;entryPerimeter=0;exitX=0.5;exitY=0.5;exitDx=0;exitDy=0;exitPerimeter=0;" edge="1" parent="1" source="2F0MaldpZm5yaDsRfOMZ-7" target="2F0MaldpZm5yaDsRfOMZ-38">
          <mxGeometry width="50" height="50" relative="1" as="geometry">
            <mxPoint x="750" y="134" as="sourcePoint" />
            <mxPoint x="540" y="260" as="targetPoint" />
            <Array as="points" />
          </mxGeometry>
        </mxCell>
        <mxCell id="2F0MaldpZm5yaDsRfOMZ-41" value="" style="endArrow=classic;html=1;rounded=0;exitX=0.5;exitY=0.5;exitDx=0;exitDy=0;exitPerimeter=0;entryX=0;entryY=0.5;entryDx=0;entryDy=0;" edge="1" parent="1" source="2F0MaldpZm5yaDsRfOMZ-30" target="2F0MaldpZm5yaDsRfOMZ-38">
          <mxGeometry width="50" height="50" relative="1" as="geometry">
            <mxPoint x="400" y="440" as="sourcePoint" />
            <mxPoint x="450" y="390" as="targetPoint" />
          </mxGeometry>
        </mxCell>
        <mxCell id="2F0MaldpZm5yaDsRfOMZ-42" value="" style="endArrow=classic;html=1;rounded=0;entryX=0;entryY=0.5;entryDx=0;entryDy=0;exitX=0.5;exitY=0.5;exitDx=0;exitDy=0;exitPerimeter=0;" edge="1" parent="1" source="2F0MaldpZm5yaDsRfOMZ-30" target="2F0MaldpZm5yaDsRfOMZ-26">
          <mxGeometry width="50" height="50" relative="1" as="geometry">
            <mxPoint x="400" y="440" as="sourcePoint" />
            <mxPoint x="450" y="390" as="targetPoint" />
          </mxGeometry>
        </mxCell>
        <mxCell id="2F0MaldpZm5yaDsRfOMZ-43" value="GENERATES_PAYMENT_LINKS" style="ellipse;whiteSpace=wrap;html=1;" vertex="1" parent="1">
          <mxGeometry x="330" y="290" width="190" height="30" as="geometry" />
        </mxCell>
        <mxCell id="2F0MaldpZm5yaDsRfOMZ-44" value="" style="endArrow=classic;html=1;rounded=0;exitX=0.5;exitY=0.5;exitDx=0;exitDy=0;exitPerimeter=0;entryX=0;entryY=0.5;entryDx=0;entryDy=0;" edge="1" parent="1" source="2F0MaldpZm5yaDsRfOMZ-1" target="2F0MaldpZm5yaDsRfOMZ-43">
          <mxGeometry width="50" height="50" relative="1" as="geometry">
            <mxPoint x="400" y="330" as="sourcePoint" />
            <mxPoint x="450" y="280" as="targetPoint" />
          </mxGeometry>
        </mxCell>
        <mxCell id="2F0MaldpZm5yaDsRfOMZ-45" value="APPROVES_PAYMENTS" style="ellipse;whiteSpace=wrap;html=1;" vertex="1" parent="1">
          <mxGeometry x="340" y="350" width="185" height="30" as="geometry" />
        </mxCell>
        <mxCell id="2F0MaldpZm5yaDsRfOMZ-46" value="" style="endArrow=classic;html=1;rounded=0;exitX=0.5;exitY=0.5;exitDx=0;exitDy=0;exitPerimeter=0;entryX=0;entryY=0.5;entryDx=0;entryDy=0;" edge="1" parent="1" source="2F0MaldpZm5yaDsRfOMZ-1" target="2F0MaldpZm5yaDsRfOMZ-45">
          <mxGeometry width="50" height="50" relative="1" as="geometry">
            <mxPoint x="400" y="330" as="sourcePoint" />
            <mxPoint x="450" y="280" as="targetPoint" />
          </mxGeometry>
        </mxCell>
        <mxCell id="2F0MaldpZm5yaDsRfOMZ-48" value="Customer" style="shape=umlActor;verticalLabelPosition=bottom;verticalAlign=top;html=1;outlineConnect=0;" vertex="1" parent="1">
          <mxGeometry x="750" y="490" width="30" height="60" as="geometry" />
        </mxCell>
        <mxCell id="2F0MaldpZm5yaDsRfOMZ-49" value="" style="endArrow=classic;html=1;rounded=0;exitX=0.5;exitY=0.5;exitDx=0;exitDy=0;exitPerimeter=0;entryX=1;entryY=0.5;entryDx=0;entryDy=0;" edge="1" parent="1" target="2F0MaldpZm5yaDsRfOMZ-15">
          <mxGeometry width="50" height="50" relative="1" as="geometry">
            <mxPoint x="765" y="525" as="sourcePoint" />
            <mxPoint x="500" y="85" as="targetPoint" />
          </mxGeometry>
        </mxCell>
        <mxCell id="2F0MaldpZm5yaDsRfOMZ-51" value="" style="endArrow=classic;html=1;rounded=0;entryX=1;entryY=0.5;entryDx=0;entryDy=0;exitX=0.5;exitY=0.5;exitDx=0;exitDy=0;exitPerimeter=0;" edge="1" parent="1" source="2F0MaldpZm5yaDsRfOMZ-10" target="2F0MaldpZm5yaDsRfOMZ-31">
          <mxGeometry width="50" height="50" relative="1" as="geometry">
            <mxPoint x="740" y="350" as="sourcePoint" />
            <mxPoint x="410" y="430" as="targetPoint" />
          </mxGeometry>
        </mxCell>
        <mxCell id="2F0MaldpZm5yaDsRfOMZ-52" value="REQUESTS_QUEUE" style="ellipse;whiteSpace=wrap;html=1;" vertex="1" parent="1">
          <mxGeometry x="350" y="507.5" width="160" height="25" as="geometry" />
        </mxCell>
        <mxCell id="2F0MaldpZm5yaDsRfOMZ-53" value="" style="endArrow=classic;html=1;rounded=0;exitX=0.5;exitY=0.5;exitDx=0;exitDy=0;exitPerimeter=0;entryX=1;entryY=0.5;entryDx=0;entryDy=0;" edge="1" parent="1" source="2F0MaldpZm5yaDsRfOMZ-48" target="2F0MaldpZm5yaDsRfOMZ-52">
          <mxGeometry width="50" height="50" relative="1" as="geometry">
            <mxPoint x="360" y="380" as="sourcePoint" />
            <mxPoint x="410" y="330" as="targetPoint" />
          </mxGeometry>
        </mxCell>
      </root>
    </mxGraphModel>
  </diagram>
</mxfile>
